<svg xmlns="http://www.w3.org/2000/svg" width="131" height="24" viewBox="0 0 131 24" class="svg replaced-svg">
    <g fill="#FFF" fill-rule="evenodd">
        <path stroke="#FFF" stroke-linecap="round" stroke-linejoin="round" stroke-width=".7" d="M15.347 3.543l.226.127 4.188 2.422.226.13a.887.887 0 0 1 .445.778v5.962l-1.777-1.028V7.503l-3.928-2.27a12.938 12.938 0 0 1-.266-.153l-3.745-2.168-3.912 2.261-.057.037-.226.13-3.743 2.163v9.182l3.927 2.27.266.153 1.35.84v2.046l-2.236-1.349-.226-.128-4.188-2.421-.226-.13a.886.886 0 0 1-.444-.778L1 12.094V6.991c0-.17.05-.332.136-.47a.883.883 0 0 1 .362-.328l4.135-2.39.225-.133.226-.128 3.964-2.29.225-.133a.886.886 0 0 1 .951.04l4.123 2.384zm-6.71 6.116l10.018 5.79v-1.485l1.777 1.024v1.695l-.878.9c-.123.159-.313.276-.47.186l-7.439-4.313v8.238a.262.262 0 0 1-.096.227l-.164-.203.163.203-1.246 1.009a.261.261 0 0 1-.44-.192l.001-10.311-1.669-.965-.882.51-.547.317c-.14.081-.3.039-.372-.086l.226-.131-.226.13-.314-.54-.31-.537c-.082-.141-.04-.3.086-.373l.13.227-.13-.226.545-.314 1.355-.78.29-.167a.261.261 0 0 1 .282-.014l.31.18z"></path>
        <path d="M37.346 16.832a.332.332 0 0 1-.242-.103.333.333 0 0 1-.104-.243V7.485a.343.343 0 0 1 .346-.346h1.937c.101 0 .184.032.249.096a.338.338 0 0 1 .096.25v7.173h4.15c.101 0 .187.035.256.104.07.07.104.155.104.256v1.468a.326.326 0 0 1-.104.25.36.36 0 0 1-.256.096h-6.432zm7.414 0a.277.277 0 0 1-.2-.09.278.278 0 0 1-.09-.2c0-.056.004-.097.014-.125l3.223-8.877c.092-.268.276-.402.553-.402h2.158c.276 0 .46.134.553.402l3.223 8.877c.01.028.014.07.014.124 0 .074-.03.141-.09.201a.277.277 0 0 1-.2.09h-1.799a.48.48 0 0 1-.47-.304l-.498-1.344h-3.624l-.498 1.344a.48.48 0 0 1-.47.304H44.76zm3.348-3.725h2.462l-1.231-3.531-1.231 3.531zm7.51 3.725a.361.361 0 0 1-.255-.097.326.326 0 0 1-.104-.249V7.498c0-.101.035-.187.104-.256a.347.347 0 0 1 .256-.104h1.563c.23 0 .396.102.498.305l2.379 4.265 2.393-4.265a.517.517 0 0 1 .498-.305h1.563c.102 0 .187.035.256.104.07.07.104.155.104.256v8.988a.326.326 0 0 1-.104.25.361.361 0 0 1-.256.096h-1.757a.332.332 0 0 1-.242-.103.333.333 0 0 1-.103-.243v-5.04l-1.494 2.741c-.12.213-.282.319-.485.319h-.746c-.185 0-.346-.106-.485-.319l-1.48-2.742v5.041a.326.326 0 0 1-.103.25.361.361 0 0 1-.256.096h-1.743zm11.482 0a.331.331 0 0 1-.242-.103.332.332 0 0 1-.104-.243V7.498c0-.101.032-.187.097-.256a.326.326 0 0 1 .249-.104h4.274c1.171 0 2.043.24 2.614.72.572.48.858 1.164.858 2.05 0 .443-.118.826-.353 1.15-.235.323-.495.558-.781.706.378.166.696.44.954.824.258.383.388.815.388 1.295 0 .932-.307 1.657-.92 2.174-.614.517-1.492.775-2.636.775H67.1zm3.983-5.858c.342 0 .604-.092.789-.277.184-.184.277-.424.277-.72 0-.286-.09-.519-.27-.699-.18-.18-.445-.27-.796-.27h-1.728v1.966h1.728zm.125 3.989c.36 0 .639-.104.837-.312a1.07 1.07 0 0 0 .297-.768c0-.314-.101-.575-.304-.783-.203-.208-.48-.311-.83-.311h-1.853v2.174h1.853zm5.671 1.87a.332.332 0 0 1-.242-.104.332.332 0 0 1-.104-.243V7.498c0-.101.033-.187.097-.256a.325.325 0 0 1 .25-.104h3.637c1.365 0 2.426.326 3.182.977.756.65 1.153 1.585 1.19 2.804.009.268.013.623.013 1.066 0 .444-.004.794-.014 1.053-.092 2.53-1.526 3.794-4.302 3.794H76.88zm3.638-2.078c.581 0 1.01-.138 1.287-.415.276-.277.424-.72.442-1.33.019-.268.028-.614.028-1.039 0-.424-.01-.766-.028-1.024-.018-.591-.177-1.027-.477-1.309-.3-.282-.74-.422-1.32-.422h-1.315v5.539h1.383zm5.423 2.077a.277.277 0 0 1-.2-.09.278.278 0 0 1-.09-.2c0-.056.004-.097.013-.125l3.223-8.877c.092-.268.277-.402.553-.402h2.158c.277 0 .461.134.553.402l3.223 8.877a.42.42 0 0 1 .014.124c0 .074-.03.141-.09.201a.276.276 0 0 1-.2.09h-1.798a.48.48 0 0 1-.47-.304l-.499-1.344h-3.624l-.498 1.344a.48.48 0 0 1-.47.304H85.94zm3.347-3.725h2.462l-1.23-3.531-1.232 3.531zm9.641 3.725a.361.361 0 0 1-.256-.097.325.325 0 0 1-.103-.249v-7.09h-2.435a.361.361 0 0 1-.256-.097.326.326 0 0 1-.103-.25V7.5c0-.102.034-.188.103-.257a.347.347 0 0 1 .256-.104h7.511c.102 0 .187.035.256.104.07.07.104.155.104.256V9.05a.326.326 0 0 1-.104.249.361.361 0 0 1-.256.097h-2.434v7.09a.326.326 0 0 1-.104.25.36.36 0 0 1-.256.096h-1.923zm6.64 0a.332.332 0 0 1-.242-.103.332.332 0 0 1-.104-.243V7.498a.36.36 0 0 1 .097-.256.325.325 0 0 1 .249-.104h6.529c.101 0 .187.035.256.104.07.07.104.155.104.256V8.87a.325.325 0 0 1-.104.249.36.36 0 0 1-.256.097h-4.371v1.758h4.067c.101 0 .186.035.256.104.069.07.103.155.103.256v1.26a.348.348 0 0 1-.103.257.349.349 0 0 1-.256.104h-4.067v1.8h4.482c.1 0 .186.035.256.104.069.07.103.154.103.256v1.371a.326.326 0 0 1-.103.25.361.361 0 0 1-.256.096h-6.64zm12.2.139c-.894 0-1.655-.13-2.282-.388s-1.102-.6-1.425-1.025a2.391 2.391 0 0 1-.512-1.385c0-.083.03-.152.09-.207a.305.305 0 0 1 .215-.083h1.84c.11 0 .2.018.27.055a.89.89 0 0 1 .227.194c.12.221.307.404.56.547.254.143.593.214 1.017.214.498 0 .881-.076 1.148-.228.268-.152.402-.362.402-.63a.615.615 0 0 0-.208-.478c-.138-.125-.36-.235-.664-.332a14.324 14.324 0 0 0-1.314-.326c-1.116-.221-1.95-.558-2.504-1.01-.553-.453-.83-1.1-.83-1.94 0-.572.16-1.082.478-1.53.318-.448.77-.796 1.355-1.045.586-.25 1.266-.374 2.04-.374.812 0 1.515.14 2.11.422s1.051.633 1.37 1.053c.318.42.486.833.504 1.24a.306.306 0 0 1-.083.214.27.27 0 0 1-.207.09h-1.937a.532.532 0 0 1-.47-.25c-.056-.193-.198-.357-.429-.491-.23-.134-.516-.2-.857-.2-.388 0-.688.069-.9.207a.682.682 0 0 0-.318.61c0 .267.139.477.415.63.277.152.793.306 1.55.463.866.157 1.556.353 2.067.589.512.235.89.54 1.135.914.244.374.366.847.366 1.42 0 .627-.18 1.172-.54 1.633-.359.462-.857.815-1.493 1.06-.636.245-1.365.367-2.186.367zm8.037-.139a.36.36 0 0 1-.256-.097.326.326 0 0 1-.104-.249v-7.09h-2.434a.36.36 0 0 1-.256-.097.326.326 0 0 1-.104-.25V7.5c0-.102.035-.188.104-.257a.347.347 0 0 1 .256-.104h7.51c.102 0 .188.035.257.104.069.07.104.155.104.256V9.05a.326.326 0 0 1-.104.249.36.36 0 0 1-.256.097h-2.435v7.09a.326.326 0 0 1-.104.25.36.36 0 0 1-.255.096h-1.923z"></path>
    </g>
</svg>